HIERARCHY
ROOT Hips
{
    OFFSET 0.000000 0.000000 0.000000
    CHANNELS 6 Xposition Yposition Zposition Zrotation Xrotation Yrotation
    JOINT Spine
    {
        OFFSET -0.000000 14.517291 0.000000
        CHANNELS 3 Zrotation Xrotation Yrotation
        JOINT Spine1
        {
            OFFSET -0.000000 37.558300 0.000000
            CHANNELS 3 Zrotation Xrotation Yrotation
            JOINT Neck
            {
                OFFSET -0.000000 37.404057 3.400369
                CHANNELS 3 Zrotation Xrotation Yrotation
                JOINT Head
                {
                    OFFSET -0.000000 24.785618 -3.540803
                    CHANNELS 3 Zrotation Xrotation Yrotation
                    End Site
                    {
                        OFFSET -0.000000 35.408028 0.000000
                    }
                }
            }
            JOINT LeftShoulder
            {
                OFFSET 6.992933 33.973492 -0.192664
                CHANNELS 3 Zrotation Xrotation Yrotation
                JOINT LeftArm
                {
                    OFFSET 21.527611 0.000000 0.000000
                    CHANNELS 3 Zrotation Xrotation Yrotation
                    JOINT LeftForeArm
                    {
                        OFFSET 56.353916 0.000000 0.000000
                        CHANNELS 3 Zrotation Xrotation Yrotation
                        JOINT LeftHand
                        {
                            OFFSET 47.774071 0.000000 0.000000
                            CHANNELS 3 Zrotation Xrotation Yrotation
                            End Site
                            {
                                OFFSET 26.556021 0.000000 0.000000
                            }
                        }
                    }
                }
            }
            JOINT RightShoulder
            {
                OFFSET -7.065357 33.973492 -0.192664
                CHANNELS 3 Zrotation Xrotation Yrotation
                JOINT RightArm
                {
                    OFFSET -21.527611 0.000000 0.000000
                    CHANNELS 3 Zrotation Xrotation Yrotation
                    JOINT RightForeArm
                    {
                        OFFSET -56.353916 0.000000 0.000000
                        CHANNELS 3 Zrotation Xrotation Yrotation
                        JOINT RightHand
                        {
                            OFFSET -47.774071 0.000000 0.000000
                            CHANNELS 3 Zrotation Xrotation Yrotation
                            End Site
                            {
                                OFFSET -26.556021 0.000000 0.000000
                            }
                        }
                    }
                }
            }
        }
    }
    JOINT LeftUpLeg
    {
        OFFSET 17.704014 0.000000 0.000000
        CHANNELS 3 Zrotation Xrotation Yrotation
        JOINT LeftLeg
        {
            OFFSET -0.000000 -81.181816 0.000000
            CHANNELS 3 Zrotation Xrotation Yrotation
            JOINT LeftFoot
            {
                OFFSET -0.000000 -62.821102 0.000000
                CHANNELS 3 Zrotation Xrotation Yrotation
                JOINT LeftToeBase
                {
                    OFFSET -0.000000 -11.507608 26.556021
                    CHANNELS 3 Zrotation Xrotation Yrotation
                    End Site
                    {
                        OFFSET -0.000000 0.000000 7.081605
                    }
                }
            }
        }
    }
    JOINT RightUpLeg
    {
        OFFSET -17.704014 0.000000 0.000000
        CHANNELS 3 Zrotation Xrotation Yrotation
        JOINT RightLeg
        {
            OFFSET -0.000000 -81.181816 0.000000
            CHANNELS 3 Zrotation Xrotation Yrotation
            JOINT RightFoot
            {
                OFFSET -0.000000 -62.821102 0.000000
                CHANNELS 3 Zrotation Xrotation Yrotation
                JOINT RightToeBase
                {
                    OFFSET -0.000000 -11.507608 26.556021
                    CHANNELS 3 Zrotation Xrotation Yrotation
                    End Site
                    {
                        OFFSET -0.000000 0.000000 7.081605
                    }
                }
            }
        }
    }
}
MOTION
Frames:    8
Frame Time:    0.008333
32.908707    158.992706    -105.719650    -0.284084    0.059615    23.570719    -1.156125    -2.777243    -0.781002    -7.663069    -0.448758    -0.282173    7.159651    6.722058    -7.007683    10.874557    -6.810998    -5.748758    8.539032    -4.695444    -12.269773    -19.587017    -18.191135    -22.275209    30.377272    -51.319626    3.534617    -23.182835    -46.757076    -37.216545    -9.258920    5.690642    -7.650047    19.625935    25.252394    8.846943    16.928225    14.016647    3.030968    1.958099    13.986061    24.189564    8.124809    -1.101373    1.616925    -11.441354    25.068577    -16.011566    7.225678    -22.371183    44.703987    0.000000    0.000000    0.000000    -14.174779    -28.930033    -6.835608    11.088863    26.169333    -13.259320    0.871020    14.837684    -13.172886    0.000000    0.000000    0.000000    
32.893002    158.983765    -105.713226    -0.273426    0.049061    23.597252    -1.184550    -2.789520    -0.765556    -7.666423    -0.420766    -0.274905    7.159187    6.721144    -7.011825    10.950450    -6.843210    -5.734842    8.517495    -4.653111    -12.297571    -19.677872    -17.988388    -22.504177    30.214302    -51.643280    2.491155    -23.284197    -46.879440    -37.293949    -9.244555    5.683216    -7.640684    19.659286    25.282574    8.805096    16.938675    14.004319    3.022656    1.979244    13.978857    24.177689    8.126553    -1.098904    1.603413    -11.438533    25.080248    -16.024307    7.221912    -22.377842    44.702976    0.000000    0.000000    0.000000    -14.190378    -28.926580    -6.860262    11.096025    26.208687    -13.267284    0.861762    14.813935    -13.169908    0.000000    0.000000    0.000000    
32.875111    158.974899    -105.705551    -0.265113    0.033526    23.627649    -1.202200    -2.801210    -0.751923    -7.686402    -0.384839    -0.267773    7.201552    6.687686    -7.013660    10.970922    -6.840729    -5.738828    8.503925    -4.585773    -12.311309    -19.762720    -18.218628    -22.824236    29.517426    -51.631203    1.171328    -23.361828    -46.575642    -37.433235    -9.216152    5.672055    -7.649698    19.673466    25.324253    8.791342    16.948851    13.990152    3.013988    2.005647    13.971046    24.171579    8.136922    -1.099267    1.578373    -11.444806    25.101917    -16.025583    7.223212    -22.386164    44.695747    0.000000    0.000000    0.000000    -14.202849    -28.916981    -6.892142    11.105408    26.244583    -13.279790    0.845789    14.788177    -13.156129    0.000000    0.000000    0.000000    
32.855423    158.967407    -105.696678    -0.258730    0.011256    23.667925    -1.234827    -2.808866    -0.749355    -7.669552    -0.346903    -0.264079    7.190033    6.664580    -7.013617    11.037458    -6.842193    -5.725736    8.448074    -4.509726    -12.340293    -19.817734    -18.481089    -23.180077    28.879856    -51.767563    -0.052517    -23.623423    -46.382919    -37.794670    -9.207363    5.661501    -7.644091    19.695110    25.364361    8.763069    16.953924    13.982024    3.021151    2.025043    13.965384    24.149139    8.153474    -1.095493    1.536263    -11.457445    25.123348    -16.045134    7.227139    -22.402525    44.715298    0.000000    0.000000    0.000000    -14.211384    -28.899529    -6.939934    11.102051    26.283537    -13.288759    0.834634    14.774216    -13.137924    0.000000    0.000000    0.000000    
32.833447    158.959305    -105.691338    -0.255176    -0.006465    23.713654    -1.254941    -2.818464    -0.746280    -7.679471    -0.310931    -0.260529    7.222621    6.636487    -7.007977    11.056591    -6.847177    -5.720301    8.400314    -4.413975    -12.369205    -19.858427    -17.919294    -23.413412    28.914429    -52.207905    -1.258877    -23.806332    -46.600349    -37.889671    -9.179131    5.644186    -7.648390    19.707485    25.407259    8.744020    16.958296    13.973497    3.020528    2.044400    13.960840    24.148417    8.169990    -1.102588    1.497000    -11.456840    25.155437    -16.085581    7.235808    -22.410402    44.735168    0.000000    0.000000    0.000000    -14.225033    -28.887373    -6.987730    11.107505    26.322746    -13.281758    0.840543    14.747703    -13.146739    0.000000    0.000000    0.000000    
32.807579    158.949875    -105.683746    -0.253012    -0.041093    23.763929    -1.278264    -2.807076    -0.748294    -7.666676    -0.276364    -0.258523    7.242463    6.595978    -6.999237    11.064914    -6.845520    -5.714117    8.326960    -4.327023    -12.398018    -19.899408    -17.958818    -23.715334    28.243946    -52.422924    -2.800416    -23.978052    -46.501698    -38.112309    -9.163060    5.715036    -7.713668    19.690977    25.419186    8.841267    16.933838    13.941703    3.027030    2.092198    13.938531    24.140232    8.200233    -1.096181    1.442621    -11.479778    25.182745    -16.070032    7.246159    -22.418308    44.727791    0.000000    0.000000    0.000000    -14.227888    -28.857058    -7.031308    11.109114    26.363485    -13.285505    0.837068    14.720726    -13.133412    0.000000    0.000000    0.000000    
32.781860    158.941803    -105.678108    -0.256225    -0.071405    23.822386    -1.291293    -2.801464    -0.759855    -7.677201    -0.248410    -0.260513    7.285367    6.558711    -6.989203    11.063167    -6.829465    -5.711834    8.268080    -4.219524    -12.428748    -19.951019    -18.032843    -24.017921    27.448933    -52.703300    -4.489936    -24.388031    -46.370056    -38.567474    -9.118318    5.721168    -7.706253    19.687050    25.420317    8.827259    16.938856    13.956699    3.039222    2.084386    13.949783    24.128624    8.232036    -1.099957    1.396986    -11.494412    25.214197    -16.062204    7.241502    -22.440628    44.717419    0.000000    0.000000    0.000000    -14.233925    -28.829201    -7.053615    11.132091    26.386887    -13.311347    0.833520    14.710886    -13.157146    0.000000    0.000000    0.000000    
32.759964    158.931503    -105.670479    -0.251153    -0.109183    23.890385    -1.314484    -2.789746    -0.772928    -7.668204    -0.209012    -0.262084    7.315409    6.544222    -6.983188    11.058762    -6.864674    -5.706823    8.180987    -4.124732    -12.458209    -20.003798    -18.323191    -24.392969    26.369062    -52.766281    -6.332197    -24.645365    -46.056973    -38.866390    -9.104557    5.713434    -7.713355    19.689804    25.413195    8.822177    16.956846    13.969179    3.056617    2.074135    13.957234    24.133373    8.256253    -1.094687    1.354053    -11.497103    25.247593    -16.067913    7.243809    -22.454525    44.696396    0.000000    0.000000    0.000000    -14.253225    -28.789957    -7.083699    11.153943    26.423286    -13.332518    0.853957    14.677073    -13.172986    0.000000    0.000000    0.000000    
